<svg width="24" height="24" viewBox="0 0 24 24" fill="none" xmlns="http://www.w3.org/2000/svg">
<g clip-path="url(#clip0_136_210)">
<path d="M12 0C5.383 0 0 5.383 0 12C0 18.617 5.383 24 12 24C18.617 24 24 18.617 24 12C24 5.383 18.617 0 12 0ZM12 23C5.935 23 1 18.065 1 12C1 5.935 5.935 1 12 1C18.065 1 23 5.935 23 12C23 18.065 18.065 23 12 23ZM7 12C7 12.552 6.552 13 6 13C5.448 13 5 12.552 5 12C5 11.448 5.448 11 6 11C6.552 11 7 11.448 7 12ZM19 12C19 12.552 18.552 13 18 13C17.448 13 17 12.552 17 12C17 11.448 17.448 11 18 11C18.552 11 19 11.448 19 12ZM13 12C13 12.552 12.552 13 12 13C11.448 13 11 12.552 11 12C11 11.448 11.448 11 12 11C12.552 11 13 11.448 13 12Z" fill="#FE01AA"/>
</g>
<defs>
<clipPath id="clip0_136_210">
<rect width="24" height="24" fill="white"/>
</clipPath>
</defs>
</svg>
