<svg width="20" height="21" viewBox="0 0 20 21" fill="none" xmlns="http://www.w3.org/2000/svg">
<path d="M19.1458 7.60722L13.2409 1.40695C11.4496 -0.468984 8.55039 -0.468984 6.75918 1.40695L0.85419 7.60722C0.305441 8.18033 -0.00213726 8.96012 1.11799e-05 9.77285V18.8536C0.00184712 20.0389 0.917002 20.999 2.04587 21H17.9542C19.083 20.9991 19.9982 20.0389 20 18.8536V9.77285C20.0022 8.96012 19.6946 8.18033 19.1458 7.60722ZM17.5 18.375H13.3334V15.5907C13.3334 13.7457 11.9089 12.25 10.1517 12.25H9.84836C8.09117 12.25 6.66668 13.7457 6.66668 15.5907V18.375H2.50001V9.77285C2.50028 9.65681 2.54395 9.54558 2.62169 9.4631L8.52668 3.26283C9.34016 2.40843 10.6593 2.40827 11.473 3.26242C11.4731 3.26254 11.4732 3.26271 11.4734 3.26283L17.3783 9.4631C17.456 9.54558 17.4998 9.65681 17.5 9.77285V18.375H17.5Z" fill="#ffffff"/>
</svg>
