<svg width="22" height="22" viewBox="0 0 22 22" fill="none" xmlns="http://www.w3.org/2000/svg">
<path d="M11 0C8.82443 0 6.69769 0.64514 4.88874 1.85384C3.0798 3.06254 1.6699 4.78051 0.837332 6.7905C0.00476616 8.80049 -0.213071 11.0122 0.211367 13.146C0.635806 15.2798 1.68346 17.2398 3.22184 18.7782C4.76022 20.3166 6.72023 21.3642 8.85403 21.7887C10.9878 22.2131 13.1996 21.9953 15.2096 21.1627C17.2195 20.3302 18.9375 18.9203 20.1462 17.1113C21.3549 15.3024 22 13.1756 22 11C21.9969 8.0836 20.837 5.28754 18.7747 3.22532C16.7125 1.16309 13.9164 0.00315433 11 0ZM11 20.1667C9.18703 20.1667 7.41474 19.6291 5.90729 18.6218C4.39984 17.6146 3.22492 16.183 2.53111 14.508C1.83731 12.833 1.65578 10.9899 2.00948 9.21169C2.36318 7.43353 3.23622 5.80018 4.5182 4.5182C5.80019 3.23621 7.43353 2.36317 9.2117 2.00947C10.9899 1.65577 12.833 1.8373 14.508 2.53111C16.183 3.22491 17.6146 4.39983 18.6218 5.90729C19.6291 7.41474 20.1667 9.18702 20.1667 11C20.164 13.4304 19.1974 15.7604 17.4789 17.4789C15.7604 19.1974 13.4304 20.164 11 20.1667Z" fill="#ffffff"/>
<path d="M11.6572 4.64117C11.1286 4.54486 10.5852 4.5659 10.0657 4.70281C9.54607 4.83972 9.06292 5.08915 8.65041 5.43345C8.23789 5.77776 7.90609 6.20851 7.67848 6.69524C7.45087 7.18197 7.33301 7.71278 7.33325 8.2501C7.33325 8.49321 7.42983 8.72637 7.60174 8.89828C7.77365 9.07019 8.00681 9.16677 8.24992 9.16677C8.49304 9.16677 8.72619 9.07019 8.8981 8.89828C9.07001 8.72637 9.16659 8.49321 9.16659 8.2501C9.16636 7.98039 9.22564 7.71396 9.3402 7.46979C9.45476 7.22563 9.62178 7.00974 9.82936 6.83754C10.0369 6.66533 10.2799 6.54105 10.5411 6.47354C10.8022 6.40604 11.075 6.39698 11.34 6.44701C11.7021 6.51731 12.0351 6.69395 12.2963 6.95438C12.5576 7.21481 12.7353 7.5472 12.8067 7.9091C12.8788 8.28897 12.829 8.68192 12.6644 9.03178C12.4997 9.38163 12.2287 9.67048 11.89 9.85702C11.3292 10.1819 10.8657 10.6513 10.5479 11.2163C10.2302 11.7812 10.0697 12.421 10.0833 13.069V13.7501C10.0833 13.9932 10.1798 14.2264 10.3517 14.3983C10.5237 14.5702 10.7568 14.6668 10.9999 14.6668C11.243 14.6668 11.4762 14.5702 11.6481 14.3983C11.82 14.2264 11.9166 13.9932 11.9166 13.7501V13.069C11.9051 12.75 11.9778 12.4336 12.1275 12.1517C12.2771 11.8698 12.4984 11.6322 12.7691 11.463C13.4332 11.0983 13.9681 10.5367 14.3 9.85556C14.632 9.17442 14.7448 8.40718 14.6229 7.65933C14.501 6.91148 14.1504 6.21976 13.6193 5.6793C13.0882 5.13883 12.4028 4.77617 11.6572 4.64117Z" fill="#ffffff"/>
<path d="M12.0999 16.5C12.0999 15.9938 11.6895 15.5834 11.1833 15.5834C10.677 15.5834 10.2666 15.9938 10.2666 16.5C10.2666 17.0063 10.677 17.4167 11.1833 17.4167C11.6895 17.4167 12.0999 17.0063 12.0999 16.5Z" fill="#ffffff"/>
</svg>
