<svg width="26" height="19" viewBox="0 0 26 19" fill="none" xmlns="http://www.w3.org/2000/svg">
<path d="M25.3333 5.27778V5.415C25.3288 5.8874 25.1675 6.34494 24.8748 6.71577C24.5821 7.0866 24.1746 7.34972 23.7161 7.46383C23.2698 7.58604 22.876 7.85151 22.5953 8.21941C22.3146 8.58731 22.1625 9.03724 22.1625 9.5C22.1625 9.96276 22.3146 10.4127 22.5953 10.7806C22.876 11.1485 23.2698 11.414 23.7161 11.5362C24.1746 11.6503 24.5821 11.9134 24.8748 12.2842C25.1675 12.6551 25.3288 13.1126 25.3333 13.585V13.7222C25.3316 15.1215 24.775 16.4629 23.7856 17.4523C22.7962 18.4417 21.4547 18.9983 20.0555 19H3.16658C2.32673 19 1.52128 18.6664 0.927412 18.0725C0.333548 17.4786 -8.2016e-05 16.6732 -8.2016e-05 15.8333V13.585C0.00440598 13.1126 0.165655 12.6551 0.458345 12.2842C0.751036 11.9134 1.15859 11.6503 1.61703 11.5362C2.06336 11.414 2.45717 11.1485 2.73788 10.7806C3.01858 10.4127 3.17063 9.96276 3.17063 9.5C3.17063 9.03724 3.01858 8.58731 2.73788 8.21941C2.45717 7.85151 2.06336 7.58604 1.61703 7.46383C1.15859 7.34972 0.751036 7.0866 0.458345 6.71577C0.165655 6.34494 0.00440598 5.8874 -8.2016e-05 5.415V3.16667C-8.2016e-05 2.32681 0.333548 1.52136 0.927412 0.927494C1.52128 0.33363 2.32673 0 3.16658 0H20.0555C21.4547 0.00167465 22.7962 0.558264 23.7856 1.54767C24.775 2.53709 25.3316 3.87854 25.3333 5.27778ZM2.11103 3.16667L2.17753 5.42872C3.07326 5.67664 3.86215 6.21319 4.42188 6.95514C4.98161 7.69709 5.28089 8.603 5.27331 9.53237C5.26573 10.4617 4.95172 11.3627 4.37997 12.0954C3.80822 12.8281 3.01068 13.3517 2.11103 13.585V15.8333C2.11103 16.1133 2.22224 16.3818 2.42019 16.5797C2.61815 16.7777 2.88663 16.8889 3.16658 16.8889H7.38881V14.7778C7.38881 14.4978 7.50002 14.2293 7.69797 14.0314C7.89593 13.8334 8.16441 13.7222 8.44436 13.7222C8.72431 13.7222 8.9928 13.8334 9.19075 14.0314C9.38871 14.2293 9.49992 14.4978 9.49992 14.7778V16.8889H20.0555C20.8953 16.8889 21.7008 16.5553 22.2946 15.9614C22.8885 15.3675 23.2221 14.5621 23.2221 13.7222L23.1556 13.5713C22.2654 13.324 21.4804 12.7923 20.9207 12.0572C20.3609 11.3221 20.057 10.424 20.0555 9.5C20.0634 8.56356 20.3771 7.65535 20.9487 6.91357C21.5203 6.17179 22.3186 5.63706 23.2221 5.39072V5.27778C23.2221 4.43793 22.8885 3.63247 22.2946 3.03861C21.7008 2.44474 20.8953 2.11111 20.0555 2.11111H9.49992V4.22222C9.49992 4.50217 9.38871 4.77066 9.19075 4.96861C8.9928 5.16657 8.72431 5.27778 8.44436 5.27778C8.16441 5.27778 7.89593 5.16657 7.69797 4.96861C7.50002 4.77066 7.38881 4.50217 7.38881 4.22222V2.11111H3.16658C2.88663 2.11111 2.61815 2.22232 2.42019 2.42027C2.22224 2.61823 2.11103 2.88671 2.11103 3.16667Z" fill="#ffffff"/>
<path d="M9.5 8.44442V10.5555C9.5 10.8355 9.38879 11.104 9.19083 11.3019C8.99288 11.4999 8.7244 11.6111 8.44444 11.6111C8.16449 11.6111 7.89601 11.4999 7.69805 11.3019C7.5001 11.104 7.38889 10.8355 7.38889 10.5555V8.44442C7.38889 8.16447 7.5001 7.89598 7.69805 7.69803C7.89601 7.50007 8.16449 7.38886 8.44444 7.38886C8.7244 7.38886 8.99288 7.50007 9.19083 7.69803C9.38879 7.89598 9.5 8.16447 9.5 8.44442Z" fill="#ffffff"/>
</svg>
